<svg xmlns="http://www.w3.org/2000/svg" viewBox="0 0 128 128">
  <defs>
    <linearGradient id="g" x1="0" y1="0" x2="1" y2="1">
      <stop offset="0%" stop-color="#6d5dfc"/>
      <stop offset="100%" stop-color="#00c6ff"/>
    </linearGradient>
  </defs>
  <rect width="128" height="128" rx="30" fill="#11131a"/>
  <path d="M64 20C38 20 18 38 18 61c0 13 7 25 18 33v18l18-11c3 1 7 1 10 1 26 0 46-18 46-41S90 20 64 20Z" fill="url(#g)"/>
  <path d="M43 64c0-4 3-7 7-7h28c4 0 7 3 7 7s-3 7-7 7H50c-4 0-7-3-7-7Z" fill="white"/>
</svg>
